name Walk3.mot
datacolumns 19
datarows 17
range 4.90300000 4.91900000
endheader

                time	   L_ground_force_vx	   L_ground_force_vy	   L_ground_force_vz	   L_ground_force_px	   L_ground_force_py	   L_ground_force_pz	   R_ground_force_vx	   R_ground_force_vy	   R_ground_force_vz	   R_ground_force_px	   R_ground_force_py	   R_ground_force_pz	   L_ground_torque_x	   L_ground_torque_y	   L_ground_torque_z	   R_ground_torque_x	   R_ground_torque_y	   R_ground_torque_z	
          4.90300000	         -8.93117965	         53.67691762	          3.11559546	          0.37500777	          0.00000000	          0.08999033	          0.00000000	          0.00000000	          0.00000000	          0.00000000	          0.00000000	          0.00000000	          0.00000000	         -0.61270418	          0.00000000	          0.00000000	          0.00000000	          0.00000000	
          4.90400000	         -9.89390377	         51.25684538	          3.00958635	          0.37540231	          0.00000000	          0.08842791	          0.00000000	          0.00000000	          0.00000000	          0.00000000	          0.00000000	          0.00000000	          0.00000000	         -0.45511126	          0.00000000	          0.00000000	          0.00000000	          0.00000000	
          4.90500000	        -10.71583846	         48.96783017	          2.84692870	          0.37662994	          0.00000000	          0.08701896	          0.00000000	          0.00000000	          0.00000000	          0.00000000	          0.00000000	          0.00000000	          0.00000000	         -0.31748832	          0.00000000	          0.00000000	          0.00000000	          0.00000000	
          4.90600000	        -11.38119660	         46.77039585	          2.62133704	          0.37904069	          0.00000000	          0.08581926	          0.00000000	          0.00000000	          0.00000000	          0.00000000	          0.00000000	          0.00000000	          0.00000000	         -0.19488148	          0.00000000	          0.00000000	          0.00000000	          0.00000000	
          4.90700000	        -11.88900701	         44.59405389	          2.34588986	          0.38247078	          0.00000000	          0.08463424	          0.00000000	          0.00000000	          0.00000000	          0.00000000	          0.00000000	          0.00000000	          0.00000000	         -0.08887894	          0.00000000	          0.00000000	          0.00000000	          0.00000000	
          4.90800000	        -12.25285931	         42.40426598	          2.05098521	          0.38645124	          0.00000000	          0.08326700	          0.00000000	          0.00000000	          0.00000000	          0.00000000	          0.00000000	          0.00000000	          0.00000000	         -0.00310539	          0.00000000	          0.00000000	          0.00000000	          0.00000000	
          4.90900000	        -12.49698528	         40.20587108	          1.77265103	          0.39041463	          0.00000000	          0.08154222	          0.00000000	          0.00000000	          0.00000000	          0.00000000	          0.00000000	          0.00000000	          0.00000000	          0.05840742	          0.00000000	          0.00000000	          0.00000000	          0.00000000	
          4.91000000	        -12.65165315	         38.02362481	          1.54150526	          0.39389553	          0.00000000	          0.07941407	          0.00000000	          0.00000000	          0.00000000	          0.00000000	          0.00000000	          0.00000000	          0.00000000	          0.09097412	          0.00000000	          0.00000000	          0.00000000	          0.00000000	
          4.91100000	        -12.74263612	         35.88685768	          1.36881370	          0.39679798	          0.00000000	          0.07719886	          0.00000000	          0.00000000	          0.00000000	          0.00000000	          0.00000000	          0.00000000	          0.00000000	          0.09501907	          0.00000000	          0.00000000	          0.00000000	          0.00000000	
          4.91200000	        -12.78405715	         33.81175328	          1.23370169	          0.39925942	          0.00000000	          0.07538429	          0.00000000	          0.00000000	          0.00000000	          0.00000000	          0.00000000	          0.00000000	          0.00000000	          0.07893071	          0.00000000	          0.00000000	          0.00000000	          0.00000000	
          4.91300000	        -12.77617998	         31.79942321	          1.08894274	          0.40131907	          0.00000000	          0.07421463	          0.00000000	          0.00000000	          0.00000000	          0.00000000	          0.00000000	          0.00000000	          0.00000000	          0.05147138	          0.00000000	          0.00000000	          0.00000000	          0.00000000	
          4.91400000	        -12.69076787	         29.80700648	          0.89352243	          0.40301626	          0.00000000	          0.07353357	          0.00000000	          0.00000000	          0.00000000	          0.00000000	          0.00000000	          0.00000000	          0.00000000	          0.01500126	          0.00000000	          0.00000000	          0.00000000	          0.00000000	
          4.91500000	        -12.44342647	         27.67671661	          0.64452773	          0.40458135	          0.00000000	          0.07294941	          0.00000000	          0.00000000	          0.00000000	          0.00000000	          0.00000000	          0.00000000	          0.00000000	         -0.03144110	          0.00000000	          0.00000000	          0.00000000	          0.00000000	
          4.91600000	        -11.87771742	         25.12467079	          0.37713334	          0.40638329	          0.00000000	          0.07223608	          0.00000000	          0.00000000	          0.00000000	          0.00000000	          0.00000000	          0.00000000	          0.00000000	         -0.08396793	          0.00000000	          0.00000000	          0.00000000	          0.00000000	
          4.91700000	        -10.79743792	         21.83138617	          0.14096975	          0.40878973	          0.00000000	          0.07140110	          0.00000000	          0.00000000	          0.00000000	          0.00000000	          0.00000000	          0.00000000	          0.00000000	         -0.13196320	          0.00000000	          0.00000000	          0.00000000	          0.00000000	
          4.91800000	         -9.06723946	         17.61241266	         -0.02473774	          0.41194246	          0.00000000	          0.07029644	          0.00000000	          0.00000000	          0.00000000	          0.00000000	          0.00000000	          0.00000000	          0.00000000	         -0.16307654	          0.00000000	          0.00000000	          0.00000000	          0.00000000	
          4.91900000	         -6.76755272	         12.67205579	         -0.10690897	          0.41570984	          0.00000000	          0.06861482	          0.00000000	          0.00000000	          0.00000000	          0.00000000	          0.00000000	          0.00000000	          0.00000000	         -0.16615819	          0.00000000	          0.00000000	          0.00000000	          0.00000000	
